<svg xmlns="http://www.w3.org/2000/svg" viewBox="0 -0.5 16 16" shape-rendering="crispEdges">
<metadata>Made with Pixels to Svg https://codepen.io/shshaw/pen/XbxvNj</metadata>
<path stroke="#232323" d="M0 0h16M0 1h1M15 1h1M0 2h1M15 2h1M0 3h1M15 3h1M0 4h1M15 4h1M0 5h1M15 5h1M0 6h1M15 6h1M0 7h1M15 7h1M0 8h1M15 8h1M0 9h1M15 9h1M0 10h1M15 10h1M0 11h1M6 11h4M15 11h1M0 12h1M6 12h4M15 12h1M0 13h1M6 13h4M15 13h1M0 14h1M6 14h4M15 14h1M0 15h16" />
<path stroke="#ffffff" d="M1 1h14M1 2h1M14 2h1M1 3h1M14 3h1M1 4h1M14 4h1M1 5h1M5 5h1M10 5h1M14 5h1M1 6h1M5 6h1M10 6h1M14 6h1M1 7h1M5 7h1M10 7h1M14 7h1M1 8h1M5 8h1M10 8h1M14 8h1M1 9h1M5 9h1M10 9h1M14 9h1M1 10h1M5 10h6M14 10h1M1 11h1M5 11h1M10 11h1M14 11h1M1 12h1M5 12h1M10 12h1M14 12h1M1 13h1M5 13h1M10 13h1M14 13h1M1 14h5M10 14h5" />
<path stroke="#000000" d="M2 2h12M2 3h12M2 4h12M2 5h3M6 5h4M11 5h3M2 6h3M6 6h4M11 6h3M2 7h3M6 7h4M11 7h3M2 8h3M6 8h4M11 8h3M2 9h3M6 9h4M11 9h3M2 10h3M11 10h3M2 11h3M11 11h3M2 12h3M11 12h3M2 13h3M11 13h3" />
</svg>